<?xml version="1.0" encoding="utf-8"?>
<!-- Generator: Adobe Illustrator 15.0.2, SVG Export Plug-In . SVG Version: 6.00 Build 0)  -->
<!DOCTYPE svg PUBLIC "-//W3C//DTD SVG 1.1//EN" "http://www.w3.org/Graphics/SVG/1.1/DTD/svg11.dtd">
<svg version="1.1" xmlns="http://www.w3.org/2000/svg" xmlns:xlink="http://www.w3.org/1999/xlink" x="0px" y="0px"
	 width="3809.239px" height="3317.337px" viewBox="0 0 3809.239 3317.337" enable-background="new 0 0 3809.239 3317.337"
	 xml:space="preserve">
<g id="bacgground">
	<rect x="3.355" stroke="#FFFFFF" stroke-miterlimit="10" width="3805.884" height="3476.022"/>
</g>
<g id="_x33_0c3">
	
		<ellipse transform="matrix(0.7649 0.6441 -0.6441 0.7649 1660.1345 -521.5039)" fill="none" stroke="#FFFFFF" stroke-width="30" stroke-miterlimit="10" cx="1544.583" cy="2013.81" rx="151.213" ry="58.633"/>
	<path fill="none" stroke="#FFFFFF" stroke-width="30" stroke-miterlimit="10" d="M1977.127,2256.229
		c-78.199,92.871-307.603,28.378-512.391-144.054c-204.783-172.423-331.779-333.987-253.578-426.857
		c78.197-92.869,319.212-64.432,524,108C1939.946,1965.743,2055.327,2163.356,1977.127,2256.229z"/>
	<path fill="none" stroke="#FFFFFF" stroke-width="30" stroke-miterlimit="10" d="M2287.604,2397.223
		c-133.544,158.601-521.486,51.681-866.5-238.821c-345.004-290.486-543.494-598.485-409.946-757.084
		c133.541-158.598,548.548-107.762,893.559,182.738C2249.729,1874.548,2421.149,2238.62,2287.604,2397.223z"/>
	<path fill="none" stroke="#FFFFFF" stroke-width="30" stroke-miterlimit="10" d="M2591.159,2521.317
		c-191.579,227.525-726.132,99.918-1209.987-307.49c-483.843-407.386-753.596-856.986-562.013-1084.51
		c191.576-227.52,760.147-127.405,1244,280C2547.012,1816.71,2782.739,2293.79,2591.159,2521.317z"/>
	<path fill="none" stroke="#FFFFFF" stroke-width="30" stroke-miterlimit="10" d="M2343.159,1321.317
		c623.933,525.336,809.557,1043.619,560,1340c-249.554,296.379-942.911,138.544-1566.846-386.812
		c-623.92-525.327-974.714-1132.812-725.154-1429.188c249.55-296.372,824-184,1416,236"/>
	<path fill="none" stroke="#FFFFFF" stroke-width="30" stroke-miterlimit="10" d="M2455.159,1081.317
		c764.791,643.936,1083.727,1326.532,776,1692c-307.725,365.462-1180.875,184.875-1945.67-459.086
		C520.714,1670.309,127.427,938.778,435.159,573.317c307.72-365.455,1020-224,1808,344"/>
	<path fill="none" stroke="#FFFFFF" stroke-width="30" stroke-miterlimit="10" d="M1616.159,2119.317
		c0-44.956-136.005-159.332-188.329-159.332"/>
	<path fill="none" stroke="#FFFFFF" stroke-width="20" stroke-miterlimit="10" d="M1552.893,2033.18
		c0,0,436.642-460.219,1452.505-791.427"/>
	<path fill="none" stroke="#FFFFFF" stroke-width="20" stroke-miterlimit="10" d="M1520.159,2006.817
		c0,0,374.15-379.45,409.453-1578.896"/>
	<path fill="none" stroke="#FFFFFF" stroke-width="20" stroke-miterlimit="10" d="M1587.159,2067.317
		c0,0,698.135-315.714,1940.135-81.714"/>
	<path fill="none" stroke="#FFFFFF" stroke-width="20" stroke-miterlimit="10" d="M1611.159,2103.309
		c0,0,741.902-81.456,2012,654.009"/>
	<path fill="none" stroke="#FFFFFF" stroke-width="20" stroke-miterlimit="10" d="M1657.159,2113.817
		c0,0,586.099,235.656,1078,1015.5"/>
	<path fill="none" stroke="#FFFFFF" stroke-width="20" stroke-miterlimit="10" d="M1484.49,1982.175
		c0,0,173.742-663.741-377.331-1884.857"/>
	<path fill="none" stroke="#FFFFFF" stroke-width="20" stroke-miterlimit="10" d="M1442.605,1962.317
		c0,0-60.527-636.985-1107.447-1769"/>
	<path fill="none" stroke="#FFFFFF" stroke-width="20" stroke-miterlimit="10" d="M1428.913,1916.415
		c0,0-345.754-431.098-1189.754-783.098"/>
	<path fill="none" stroke="#FFFFFF" stroke-width="20" stroke-miterlimit="10" d="M1434.659,1974.817c0,0-299.5-185.5-767.5-145.5"
		/>
	<path fill="none" stroke="#FFFFFF" stroke-width="20" stroke-miterlimit="10" d="M1476.659,2031.317c0,0-142.014,47.008-425.5,206"
		/>
	<path fill="none" stroke="#FFFFFF" stroke-width="20" stroke-miterlimit="10" d="M1537.659,2082.817
		c0,0,11.495,183.515-102.5,486.5"/>
	<path fill="none" stroke="#FFFFFF" stroke-width="20" stroke-miterlimit="10" d="M1603.659,2115.817
		c0,0,259.76,242.725,359.5,781.5"/>
	<path fill="none" stroke="#FFFFFF" stroke-width="30" stroke-miterlimit="10" d="M2615.159,889.317
		c885.553,745.615,1274.391,1589.61,912,2020c-362.39,430.386-1378.443,257.643-2264-488
		c-885.534-745.601-1419.711-1736.034-1024-2136c372-376,1016-304,2140,408"/>
</g>
<g id="space">
	<g>
		<g>
			<path fill="#FFFFFF" d="M332.806,1548.097l-10.662,7.237c-18.734-1.494-37.496-3.157-56.298-4.983l11.358,17.046
				c6.464,9.627,4.96,15.06-4.994,21.816l-32.289,21.903c-10.382,7.048-15.903,6.285-22.6-3.688
				c-7.801-11.633-15.533-23.313-23.19-35.044c-6.481-9.937-5.023-15.317,5.513-22.128l12.119-7.84l9.851,12.005l-13.245,8.656
				c-2.872,1.878-2.166,2.96-1.191,4.449c6.514,9.963,13.087,19.888,19.708,29.779c0.987,1.481,1.707,2.553,4.557,0.639
				l33.256-22.335c2.708-1.819,1.998-2.876,1.021-4.335c-6.234-9.315-12.425-18.659-18.565-28.037l9.781-6.413
				c18.423,1.779,36.816,3.396,55.171,4.857c-9.626-14.367-19.134-28.808-28.523-43.32l11.393-7.385
				C307.38,1510.142,319.991,1529.183,332.806,1548.097z"/>
			<path fill="#FFFFFF" d="M355.359,1580.361c-6.493-9.354-11.767-10.087-22.114-2.957l-79.108,54.528
				c-10.334,7.116-11.625,12.545-4.874,22.267c7.779,11.193,15.623,22.34,23.531,33.44c6.969,9.771,12.508,10.381,22.69,3.045
				l77.964-56.15c10.193-7.348,11.281-12.563,4.573-21.971C370.404,1601.87,362.848,1591.137,355.359,1580.361z M341.491,1590.212
				c2.816-1.961,3.625-0.802,4.519,0.485c6.333,9.096,12.714,18.16,19.14,27.194c0.999,1.408,1.818,2.562-0.976,4.555
				l-77.531,55.316c-2.794,1.993-3.638,0.805-4.668-0.645c-6.619-9.305-13.192-18.644-19.717-28.017
				c-0.921-1.324-1.754-2.521,1.062-4.48L341.491,1590.212z"/>
			<path fill="#FFFFFF" d="M367.508,1672.588l-7.827-10.75l10.984-7.979l7.797,10.705l17.201-12.597l10.792,10.339l-19.219,14.203
				l11.368,15.324l-10.876,8.128l-11.413-15.382l-55.038,40.656c-2.623,1.938-1.856,2.978-0.799,4.406l9.82,13.228l-10.879,8.125
				l-11.49-15.489c-7.035-9.537-6.027-14.891,4.092-22.291L367.508,1672.588z"/>
			<path fill="#FFFFFF" d="M443.193,1696.184l-8.859-11.716l-105.273,79.385l9.192,12.153L443.193,1696.184z M434.854,1766.467
				c9.882-7.743,10.745-13.037,3.686-22.135c-5.929-7.649-11.828-15.321-17.694-23.017l-14.627,3.202
				c6.545,8.616,13.128,17.205,19.753,25.763c1.069,1.377,1.843,2.38-0.74,4.385l-64.771,50.277l9.562,12.284L434.854,1766.467z"/>
			<path fill="#FFFFFF" d="M544.358,1827.915c7.326,8.777,6.379,14.297-3.231,22.39l-12.229,10.294l-11.162-10.666l13.461-11.237
				c2.503-2.091,1.603-3.175,0.591-4.389c-7.277-8.743-14.516-17.517-21.709-26.324c-0.994-1.219-1.891-2.313-4.415-0.252
				l-73.895,60.36c-2.525,2.064-1.604,3.192-0.583,4.44c7.39,9.047,14.823,18.058,22.296,27.035
				c1.038,1.247,1.964,2.359,4.468,0.271l14.643-12.222l8.694,13.049l-13.155,11.07c-9.724,8.186-15.424,8.104-23.005-0.979
				c-8.855-10.624-17.657-21.294-26.401-32.012c-7.471-9.164-6.468-14.782,3.412-22.779l74.128-60.054
				c9.766-7.908,15.354-7.795,22.57,1.059C527.287,1807.327,535.795,1817.643,544.358,1827.915z"/>
			<path fill="#FFFFFF" d="M580.797,1866.478l-9.561-11.198l-100.364,85.509l9.889,11.577L580.797,1866.478z M576.644,1937.191
				c9.416-8.305,9.968-13.645,2.379-22.326c-6.375-7.301-12.724-14.624-19.043-21.971l-14.419,4.054
				c7.052,8.223,14.141,16.416,21.261,24.583c1.146,1.318,1.98,2.271-0.481,4.426l-61.729,53.972l10.255,11.696L576.644,1937.191z"
				/>
			<path fill="#FFFFFF" d="M638.319,1981.256c7.675,8.398,7.234,13.757-1.99,22.259l-60.566,55.779l-10.283-11.22l33.496-30.624
				c-7.601-8.32-15.164-16.676-22.695-25.059c-1.172-1.304-2.033-2.265-4.466-0.079l-19.055,17.11
				c-2.434,2.185-1.565,3.15-0.383,4.466c7.554,8.408,15.139,16.788,22.762,25.133l-14.134,4.146
				c-6.833-7.507-13.64-15.036-20.417-22.594c-7.892-8.809-7.533-14.113,1.832-22.454l19.762-17.613
				c8.345-7.433,13.993-7.549,21.768,1.128c8.143,9.073,16.319,18.116,24.542,27.117l17.635-16.127
				c2.408-2.2,1.551-3.135,0.375-4.427c-10.19-11.178-20.32-22.409-30.383-33.697l10.949-7.866
				C617.416,1958.234,627.835,1969.773,638.319,1981.256z"/>
			<path fill="#FFFFFF" d="M675.316,2020.738c-7.896-8.427-13.248-8.406-22.443,0.155l-48.672,45.352
				c-9.176,8.544-9.543,13.974-1.456,22.609c8.38,8.939,16.798,17.843,25.254,26.708c8.161,8.552,13.599,8.486,22.636-0.208
				l47.948-46.113c9.055-8.714,9.37-14.063,1.399-22.412C691.723,2038.167,683.5,2029.471,675.316,2020.738z M662.921,2032.151
				c2.384-2.235,3.252-1.312,4.447-0.037c6.949,7.404,13.927,14.783,20.933,22.137c1.205,1.266,2.082,2.184-0.282,4.442
				l-47.494,45.354c-2.482,2.37-3.373,1.437-4.599,0.15c-7.126-7.479-14.224-14.985-21.294-22.518
				c-1.215-1.296-2.098-2.237,0.405-4.586L662.921,2032.151z"/>
			<path fill="#FFFFFF" d="M761.808,2110.322c8.146,8.188,7.947,13.549-0.925,22.446l-6.55,6.565l-12.144-9.254l8.281-8.243
				c2.318-2.308,1.425-3.209,0.194-4.448l-20.178-20.46c-1.223-1.248-2.215-2.268-4.551,0.021l-16.334,15.997
				c-2.335,2.285-1.335,3.312-0.103,4.567c7.679,7.837,15.386,15.647,23.124,23.428c8.228,8.27,7.689,13.785-0.812,22.313
				l-17.111,17.154c-8.861,8.888-14.303,9.301-22.754,0.812c-8.636-8.69-17.243-17.41-25.808-26.173
				c-8.372-8.567-8-14.123,1.001-22.869l6.771-6.583l11.901,9.748l-8.223,8.051c-2.336,2.284-1.321,3.328-0.081,4.595l21.762,22.066
				c1.136,1.14,2.162,2.174,4.479-0.133l18.026-17.947c2.312-2.304,1.292-3.327,0.167-4.463
				c-7.792-7.847-15.557-15.72-23.288-23.625c-8.179-8.367-7.647-14.02,0.977-22.402l15.521-15.097
				c9.009-8.758,14.362-8.893,22.546-0.519C745.7,2094.054,753.74,2102.201,761.808,2110.322z"/>
			<path fill="#FFFFFF" d="M877.188,2181.419c8.335,7.896,8.046,13.495-0.557,22.652l-10.949,11.646l-12.358-9.319l12.053-12.733
				c2.242-2.371,1.217-3.344,0.067-4.435c-8.28-7.856-16.527-15.747-24.745-23.666c-1.135-1.09-2.158-2.081-4.421,0.269
				l-66.21,68.702c-2.262,2.346-1.217,3.358-0.057,4.477c8.406,8.099,16.84,16.168,25.308,24.202
				c1.175,1.112,2.226,2.108,4.467-0.259l13.115-13.852l10.157,11.948l-11.777,12.523c-8.707,9.261-14.373,9.846-22.953,1.723
				c-10.023-9.502-20.006-19.048-29.945-28.64c-8.495-8.202-8.168-13.894,0.686-23.013l66.436-68.469
				c8.75-9.016,14.326-9.561,22.577-1.594C857.74,2162.904,867.444,2172.183,877.188,2181.419z"/>
			<path fill="#FFFFFF" d="M896.07,2239.847c-8.487-7.861-13.83-7.465-22.39,1.732l-45.322,48.697
				c-8.546,9.176-8.527,14.614,0.146,22.651c8.986,8.315,18.002,16.599,27.052,24.844c8.733,7.955,14.151,7.509,22.561-1.794
				l44.62-49.339c8.426-9.322,8.365-14.685-0.182-22.468C913.693,2256.098,904.866,2247.988,896.07,2239.847z M884.514,2252.107
				c2.221-2.402,3.152-1.537,4.436-0.352l22.467,20.636c1.292,1.178,2.23,2.033,0.029,4.451l-44.201,48.566
				c-2.311,2.538-3.264,1.67-4.576,0.474l-22.816-20.957c-1.303-1.204-2.251-2.08,0.08-4.601L884.514,2252.107z"/>
			<path fill="#FFFFFF" d="M967.215,2304.813l-13.886,5.832l9.029-10.154l-11.106-9.923l-65.927,73.646l11.339,10.132l56.665-63.701
				l24.044,21.271c1.321,1.161,2.27,1.993,0.122,4.444l-54.046,61.664l11.451,10.016l54.077-62.09
				c8.237-9.463,8.084-14.841-0.616-22.471L967.215,2304.813z M1004.718,2337.771l-13.71,6.081l24.154,20.918
				c1.326,1.143,2.289,1.971,0.166,4.446l-53.402,62.222l11.552,9.896l53.432-62.646c8.139-9.549,7.927-14.929-0.85-22.464
				L1004.718,2337.771z"/>
			<path fill="#FFFFFF" d="M1072.136,2395.324l-13.716,6.228l8.734-10.407l-11.393-9.606l-63.775,75.522l11.625,9.796l54.81-65.305
				l24.653,20.58c1.354,1.121,2.325,1.93,0.246,4.441l-52.264,63.179l11.729,9.685l52.292-63.602
				c7.964-9.693,7.655-15.065-1.26-22.446L1072.136,2395.324z M1110.583,2427.216l-13.534,6.463l24.743,20.233
				c1.36,1.104,2.346,1.906,0.294,4.439l-51.627,63.703l11.823,9.566l51.652-64.125c7.866-9.771,7.501-15.145-1.488-22.433
				L1110.583,2427.216z"/>
			<path fill="#FFFFFF" d="M1137.111,2575.221l13.453-6.712l-26.613-20.958c-1.384-1.099-2.402-1.903-0.369-4.467l50.94-64.253
				l-11.662-9.284l-51.343,64.369c-7.828,9.809-7.399,15.225,1.853,22.572L1137.111,2575.221z M1214.94,2510.582l-11.756-9.167
				l-60.847,77.897l11.987,9.346L1214.94,2510.582z"/>
			<path fill="#FFFFFF" d="M1274.914,2556.497c9.251,6.968,9.805,12.324,2.291,22.368l-49.33,65.925l-12.157-9.135l49.316-65.509
				c1.962-2.604,0.943-3.374-0.455-4.427l-27.231-20.694l-51.772,67.739l-12.056-9.257l60.251-78.357l11.827,9.077l-8.25,10.798
				l13.424-6.843L1274.914,2556.497z"/>
			<path fill="#FFFFFF" d="M1338.254,2562.554l-12.802-9.471l-9.211,12.429l12.84,9.5L1338.254,2562.554z M1318.306,2588.851
				l-12.116-8.964l-58.853,79.415l12.349,9.137L1318.306,2588.851z"/>
			<path fill="#FFFFFF" d="M1342.594,2708.954c-7.263,10.231-12.593,11.308-22.203,4.437c-9.647-6.901-19.27-13.835-28.869-20.803
				c-9.557-6.94-10.218-12.335-2.822-22.472l39.411-54.029c7.4-10.144,12.66-11.174,22.031-4.369l28.319,20.412
				c9.423,6.736,10.121,12.061,2.854,22.299l-8.164,11.496l-13.216-7.323l8.99-12.581c1.895-2.653,0.858-3.395-0.567-4.414
				l-23.869-17.202c-1.416-1.027-2.449-1.777-4.364,0.864l-38.742,53.444c-2.016,2.779-0.968,3.541,0.469,4.582l24.203,17.443
				c1.446,1.033,2.498,1.785,4.494-1.007l9.094-12.728l11.414,10.034L1342.594,2708.954z"/>
			<path fill="#FFFFFF" d="M1451.39,2683.78c9.402,6.481,10.184,11.809,3.099,22.164l-46.508,67.944l-12.528-8.613l25.746-37.377
				l-27.793-19.3c-1.445-1.011-2.492-1.743-4.365,0.938l-14.675,20.986c-1.874,2.679-0.821,3.415,0.633,4.437l27.833,19.325
				l-12.838,7.219l-24.956-17.362c-9.673-6.777-10.532-12.021-3.313-22.276l15.234-21.65c6.433-9.139,11.915-10.534,21.477-3.834
				c10.001,7.002,20.029,13.968,30.08,20.9l13.553-19.683c1.851-2.685,0.801-3.41-0.641-4.404
				c-12.482-8.618-24.925-17.291-37.33-26.018l8.877-10.149C1425.737,2666.002,1438.543,2674.92,1451.39,2683.78z"/>
			<path fill="#FFFFFF" d="M1478.638,2718.859l-11.051-7.512l7.639-11.229l11.021,7.492l11.948-17.656l13.752,6.18l-13.334,19.831
				l15.946,10.693l-7.535,11.299l-15.988-10.725l-38.186,56.779c-1.822,2.707-0.754,3.428,0.72,4.417l13.67,9.162l-7.536,11.297
				l-15.983-10.724c-9.799-6.601-10.657-11.972-3.625-22.355L1478.638,2718.859z"/>
			<path fill="#FFFFFF" d="M1558.766,2716.386l-13.283-8.787l-8.547,12.897l13.325,8.812L1558.766,2716.386z M1540.218,2743.689
				l-12.579-8.321l-54.603,82.395l12.824,8.481L1540.218,2743.689z"/>
			<path fill="#FFFFFF" d="M1573.217,2764.854c-9.712-6.3-14.917-4.997-21.779,5.526l-36.322,55.733
				c-6.85,10.505-5.897,15.861,4.009,22.287c10.273,6.66,20.571,13.285,30.893,19.872c9.965,6.355,15.231,5,21.938-5.597
				l35.585-56.206c6.717-10.617,5.738-15.898-4.028-22.126C1593.391,2777.885,1583.293,2771.387,1573.217,2764.854z
				 M1563.927,2778.912c1.777-2.744,2.849-2.05,4.318-1.099l25.693,16.526c1.475,0.943,2.545,1.624,0.787,4.386l-35.293,55.377
				c-1.845,2.895-2.929,2.204-4.426,1.249l-26.06-16.767c-1.492-0.963-2.577-1.667-0.711-4.548L1563.927,2778.912z"/>
			<path fill="#FFFFFF" d="M1680.288,2832.771c9.876,6.048,10.943,11.323,4.432,22.047l-42.759,70.365l-12.991-7.933l42.794-69.941
				c1.702-2.783,0.621-3.444-0.872-4.359c-9.719-5.965-19.419-11.96-29.096-17.992l-45.045,72.387l-12.897-8.062l52.476-83.768
				l12.645,7.906l-7.179,11.537l12.7-8.103L1680.288,2832.771z"/>
			<path fill="#FFFFFF" d="M1809.298,2874.412c9.963,5.724,10.995,11.233,4.78,22.154l-7.91,13.891l-14.205-6.163l8.729-15.208
				c1.624-2.827,0.381-3.542-0.982-4.326c-9.904-5.704-19.79-11.444-29.654-17.223c-1.373-0.805-2.594-1.523-4.243,1.292
				l-48.226,82.327c-1.648,2.814-0.398,3.545,1.003,4.368c10.082,5.904,20.185,11.773,30.311,17.604
				c1.396,0.803,2.665,1.532,4.288-1.297l9.499-16.542l12.683,9.234l-8.511,14.94c-6.288,11.046-11.662,12.943-21.915,7.053
				c-11.989-6.893-23.946-13.837-35.871-20.832c-10.195-5.982-11.211-11.591-4.748-22.535l48.488-82.163
				c6.387-10.82,11.682-12.655,21.595-6.836C1786.013,2860.957,1797.642,2867.711,1809.298,2874.412z"/>
			<path fill="#FFFFFF" d="M1841.398,2926.789c-10.091-5.645-15.199-4.008-21.361,6.94l-32.623,57.979
				c-6.151,10.925-4.848,16.215,5.477,21.99c10.708,5.984,21.443,11.927,32.206,17.824c10.389,5.69,15.562,3.984,21.54-7.039
				l31.725-58.475c5.988-11.045,4.659-16.241-5.485-21.798C1862.36,2938.448,1851.868,2932.641,1841.398,2926.789z
				 M1833.048,2941.423c1.594-2.853,2.708-2.229,4.228-1.383l26.714,14.786c1.534,0.842,2.645,1.45,1.075,4.318l-31.52,57.612
				c-1.647,3.01-2.777,2.392-4.337,1.534l-27.161-15.031c-1.547-0.862-2.678-1.496-1.007-4.493L1833.048,2941.423z"/>
			<path fill="#FFFFFF" d="M1952.645,2987.176c10.257,5.319,11.694,10.5,5.969,21.664l-37.598,73.251l-13.571-7.009l37.73-72.799
				c1.499-2.896,0.375-3.48-1.176-4.287c-10.101-5.253-20.18-10.552-30.239-15.894l-39.947,75.319l-13.457-7.179l46.634-87.152
				l13.134,7.006l-6.365,12.006l12.099-8.965C1934.771,2977.851,1943.7,2982.532,1952.645,2987.176z"/>
			<path fill="#FFFFFF" d="M2033.761,3027.629c10.37,5.045,12.083,10.231,6.646,21.558l-43.258,90.018
				c-5.427,11.303-10.713,13.177-21.513,7.923c-15.518-7.559-30.958-15.225-46.33-22.99l7.728-11.319
				c13.959,7.042,27.972,14.003,42.047,20.873c1.475,0.72,2.802,1.364,4.228-1.567l43.377-89.2c1.425-2.934,0.14-3.558-1.431-4.323
				c-9.267-4.524-18.515-9.095-27.744-13.705c-1.563-0.777-2.702-1.351-4.16,1.568l-29.278,58.58
				c-1.462,2.923-0.301,3.507,1.295,4.304c10.336,5.162,20.701,10.276,31.097,15.34l-11.789,9.357
				c-9.356-4.58-18.686-9.201-27.993-13.86c-10.609-5.314-12.156-10.546-6.494-21.743l29.833-59.068
				c5.667-11.215,10.688-13.078,21-7.912C2011.91,3016.911,2022.824,3022.301,2033.761,3027.629z"/>
			<path fill="#FFFFFF" d="M2106.873,3062.439l-5.745,12.68c-8.225-3.733-16.434-7.51-24.629-11.325l-35.801,77.009l-14.017-6.57
				l42.123-89.419l13.562,6.356l-5.867,12.624l11.739-9.896L2106.873,3062.439z"/>
			<path fill="#FFFFFF" d="M2133.175,3073.83c-10.497-4.634-15.411-2.525-20.539,8.94l-27.006,60.42
				c-5.122,11.445-3.313,16.613,7.615,21.436c15.031,6.619,30.15,13.106,45.383,19.435l6.707-11.917
				c-14.739-6.111-29.38-12.377-43.942-18.77c-1.483-0.653-2.828-1.243-1.514-4.23l8.933-20.306
				c15.684,6.91,31.447,13.664,47.305,20.229l16.671-40.347c4.788-11.61,3.104-16.56-7.583-21.063
				C2154.507,3083.138,2143.831,3078.523,2133.175,3073.83z M2126.46,3088.713c1.313-2.986,2.618-2.412,4.061-1.777
				c9.026,3.963,18.07,7.868,27.133,11.71c1.6,0.679,2.912,1.232,1.645,4.236l-12.149,28.832
				c-11.134-4.7-22.227-9.493-33.284-14.363L2126.46,3088.713z"/>
			<path fill="#FFFFFF" d="M2246.666,3119.825c10.624,3.846,12.68,8.698,8.556,20.574l-3.053,8.754
				c-4.943-1-9.89-2.032-14.835-3.096l3.978-10.988c1.114-3.074-0.059-3.501-1.678-4.09c-8.872-3.242-17.729-6.585-26.57-10.009
				c-1.613-0.625-2.933-1.142-4.118,1.908l-8.282,21.307c-1.185,3.048,0.16,3.573,1.802,4.209
				c10.244,3.968,20.528,7.833,30.855,11.574c10.975,3.956,12.894,9.133,8.946,20.516l-7.967,22.883
				c-4.11,11.849-8.976,14.57-20.602,10.374c-11.865-4.298-23.612-8.731-35.274-13.276c-11.404-4.457-13.37-9.721-8.712-21.37
				l3.502-8.771l15.006,4.079l-4.175,10.72c-1.188,3.048,0.193,3.587,1.878,4.241c9.801,3.799,19.657,7.518,29.586,11.136
				c1.542,0.562,2.947,1.068,4.056-2.007l8.648-23.919c1.108-3.071-0.259-3.564-1.77-4.116
				c-10.464-3.814-20.874-7.751-31.238-11.786c-10.96-4.279-12.792-9.682-8.333-20.848l8.017-20.111
				c4.661-11.676,9.455-13.972,20.196-9.78C2225.598,3112.024,2236.128,3115.999,2246.666,3119.825z"/>
			<path fill="#FFFFFF" d="M2328.098,3145.434c5.18,1.28,8.305,2.985,9.857,5.944c1.547,2.955,1.527,7.163,0.245,13.312
				l-1.898,9.075c-4.869-0.321-9.782-0.752-14.716-1.264l2.795-11.346c0.78-3.176-0.381-3.463-1.99-3.87
				c-8.821-2.238-17.705-4.744-26.596-7.425c-1.623-0.488-2.952-0.896-3.907,2.23l-6.668,21.867
				c-0.955,3.127,0.424,3.553,2.108,4.059c10.51,3.167,21.083,6.125,31.736,8.739c5.663,1.386,9.118,3.245,10.877,6.267
				c1.756,3.019,1.819,7.194,0.598,13.093l-4.923,23.724c-1.271,6.144-3.092,10.031-6.264,12.008
				c-3.162,1.973-7.675,2.036-14.084,0.465c-13.089-3.219-25.678-6.795-38.052-10.58c-12.087-3.729-14.447-8.909-10.569-20.829
				l2.918-8.981c5.144,1.071,10.306,2.103,15.483,3.092l-3.37,11c-0.961,3.129,0.493,3.573,2.27,4.112
				c10.336,3.123,20.817,6.083,31.575,8.789c1.674,0.42,3.202,0.795,3.978-2.385l6.044-24.707c0.773-3.17-0.659-3.521-2.237-3.915
				c-10.947-2.754-21.749-5.827-32.461-9.102c-11.321-3.483-13.507-8.79-9.794-20.214l6.667-20.601
				c3.878-11.963,8.451-14.563,19.167-11.265C2307.374,3139.93,2317.826,3142.886,2328.098,3145.434z"/>
		</g>
	</g>
</g>
<g id="rocket">
	<g>
		<path fill="#FFFFFF" d="M2705.88,682.854l42.751-123.382c-17.039-3.25-30.961-10.437-42.188-19.179
			c-16.78-13.07-27.543-29.584-33.763-41.565l-113.351,68.355C2594.036,687.129,2705.88,682.854,2705.88,682.854z"/>
		<path fill="#FFFFFF" d="M2754.211,543.371l24.977-72.076c0,0,11.048-21.417,4.656-29.279c-6.798-8.36-21.164,2.438-21.164,2.438
			l-75.725,45.663C2695.477,507.384,2715.527,537.201,2754.211,543.371z"/>
		<path fill="#FFFFFF" d="M2568.606,621.833c-7.896-12.204-14.749-26.315-19.883-42.747c0,0-21.82,18.927-46.446,42.266
			c2.8,11.542,8.179,28.949,18.065,47.471C2540.548,648.24,2559.352,630.458,2568.606,621.833z"/>
		<path fill="#FFFFFF" d="M2615.968,748.495c16.613-26.248,29.449-49.913,35.506-61.463c-24.651-9.215-55.006-26.406-78.053-58.18
			c-9.769,9.124-28.731,27.103-48.778,47.602C2541.678,705.076,2569.845,734.749,2615.968,748.495z"/>
		<path fill="#FFFFFF" d="M2671.19,756.335c10.384-17.904,20.892-38.052,29.217-58.479l-5.277-0.313c0,0-14.969-1.02-35.619-7.714
			c-5.718,10.94-18.4,34.477-35.045,60.965C2638.444,754.201,2653.964,756.177,2671.19,756.335z"/>
		<path fill="#FFFFFF" d="M2584.61,807.546c13.29,4.971,27.922,9.453,44.081,13.264c0,0,17.914-23.378,37.601-56.175
			c-17.078-0.511-32.553-2.779-46.513-6.48C2609.188,774.611,2597.235,791.796,2584.61,807.546z"/>
		<path fill="#FFFFFF" d="M2495.516,627.805c-14.237,13.691-28.83,28.387-40.258,41.405c0,0,1,22.911,17.68,51.665
			c12.227-14.978,27.148-31.185,41.782-46.287C2504.899,656.896,2498.958,640.048,2495.516,627.805z"/>
		<path fill="#FFFFFF" d="M2611.365,755.688c-20.024-6.384-36.802-15.703-50.815-26.618c-17.973-13.997-31.409-30.601-41.428-46.939
			c-14.693,15.227-29.569,31.479-41.5,46.318c16.917,25.699,46.662,54.652,98.793,75.854
			C2588.92,788.917,2600.794,771.989,2611.365,755.688z"/>
		<path fill="#FFFFFF" d="M2371.484,1187.719c-7.484-5.828-29.321,1.957-29.321,1.957l10.164-86.477
			c9.42,2.612,15.413,3.472,15.413,3.472c144.449-132.419,252.204-275.592,252.204-275.592
			c-125.746-16.998-179.578-139.855-179.578-139.855c-106.967,130.603-198.938,313.318-198.938,313.318
			c2.259,7.036,5.004,13.549,8.064,19.673l-84.878,31.69c0,0,6.733-24.056-0.751-29.883c0,0-26.621-10.215-99.918,82.955
			c-52.043,66.151-56.731,107.575-52.318,112.519c4.413,4.941,38.369-3.932,70.466-41.286l108.98-27.066l52.826-94.84
			l-91.875,25.361l6.556-8.417l102.596-31.842c20.105,27.529,47.648,43.497,69.717,52.479l-5.84,109.016l-6.554,8.417l2.087-95.29
			l-79.016,74.444l0.448,112.29c-28.356,40.269-28.644,75.365-22.77,78.431c5.873,3.069,44.558-11.871,96.277-78.279
			C2384.359,1216.529,2371.484,1187.719,2371.484,1187.719z"/>
		<path fill="#FFFFFF" d="M2238.141,1185.294l83.078-82.551c-44.384-17.288-63.601-49.533-63.601-49.533l-56.523,102.481
			C2213.246,1178.675,2238.141,1185.294,2238.141,1185.294z"/>
		<path fill="#FFFFFF" d="M2173.291,1224.192c26.322,18.208,59.222-9.474,59.222-9.474l0.479-19.913
			c-35.192-7.872-43.129-34.337-43.129-34.337c-11.6,4.052-18.343,5.469-18.517,5.644
			C2166.682,1170.803,2147.413,1206.292,2173.291,1224.192z"/>
		<path fill="#FFFFFF" d="M2185.194,1240.162c-4.593,0.084-8.27,3.902-8.264,8.495c0,0.736-2.122,75.088-192.746,231.191
			c-3.035,2.19-13.746,11.314-45.467,47.707c27.516-39.668,33.74-52.288,35.119-55.767
			c104.128-221.902,175.5-243.103,176.93-243.492c4.471-1.032,7.298-5.473,6.328-9.975c-0.981-4.542-5.462-7.427-10.004-6.452
			c-3.177,0.687-79.072,19.482-188.616,253.032l-0.313,0.768c-0.676,1.745-19.386,46.319-267.53,361.642
			c-0.106,0.136-0.177,0.291-0.275,0.435l-0.035-0.03c-34.501,57.309-110.379,159.01-110.379,159.01
			c52.089-65.939,120.008-136.07,127.669-143.943c0.25-0.214,0.465-0.468,0.692-0.711c0.007-0.006,0.047-0.047,0.047-0.047
			l-0.002-0.002c0.167-0.179,0.348-0.327,0.498-0.524c244.949-317.812,283.583-346.87,284.799-347.754l0.977-0.688
			c199.61-163.405,199.247-241.592,199.133-244.842C2193.594,1243.624,2189.786,1240.077,2185.194,1240.162z"/>
	</g>
</g>
</svg>
