<?xml version="1.0" encoding="utf-8"?>
<!-- Generator: Adobe Illustrator 15.0.2, SVG Export Plug-In . SVG Version: 6.00 Build 0)  -->
<!DOCTYPE svg PUBLIC "-//W3C//DTD SVG 1.1//EN" "http://www.w3.org/Graphics/SVG/1.1/DTD/svg11.dtd">
<svg version="1.1" xmlns="http://www.w3.org/2000/svg" xmlns:xlink="http://www.w3.org/1999/xlink" x="0px" y="0px" width="283.4px"
	 height="141.732px" viewBox="0 0 283.4 141.732" enable-background="new 0 0 283.4 141.732" xml:space="preserve">
<g id="background">
	<rect x="-27" y="-3.268" stroke="#000000" stroke-miterlimit="10" width="371" height="159"/>
</g>
<g id="_x33_0c3">
	<polyline fill="none" stroke="#FFFFFF" stroke-width="0.878" stroke-miterlimit="10" points="169.538,40.105 172.085,42.654 
		143.981,70.777 172.102,98.897 169.538,101.458 	"/>
	<polyline fill="none" stroke="#FFFFFF" stroke-width="0.878" stroke-miterlimit="10" points="172.101,37.549 177.207,42.654 
		149.098,70.777 177.22,98.897 172.101,104.016 	"/>
	<polyline fill="none" stroke="#FFFFFF" stroke-width="0.878" stroke-miterlimit="10" points="174.662,34.993 182.33,42.662 
		154.216,70.777 182.333,98.893 174.662,106.573 	"/>
	<polyline fill="none" stroke="#FFFFFF" stroke-width="0.878" stroke-miterlimit="10" points="177.225,32.438 187.443,42.656 
		159.333,70.776 187.443,98.909 177.225,109.127 	"/>
	<polyline fill="none" stroke="#FFFFFF" stroke-width="0.878" stroke-miterlimit="10" points="179.787,29.883 192.564,42.662 
		164.452,70.777 192.564,98.903 179.787,111.682 	"/>
	<polyline fill="none" stroke="#FFFFFF" stroke-width="0.878" stroke-miterlimit="10" points="182.349,27.326 197.679,42.656 
		169.57,70.777 197.686,98.891 182.349,114.239 	"/>
	<polyline fill="none" stroke="#FFFFFF" stroke-width="0.878" stroke-miterlimit="10" points="184.911,24.771 202.803,42.66 
		174.688,70.777 202.81,98.897 184.911,116.793 	"/>
	<polyline fill="none" stroke="#FFFFFF" stroke-width="0.878" stroke-miterlimit="10" points="187.473,22.214 207.916,42.658 
		179.805,70.777 207.927,98.897 187.473,119.35 	"/>
	<polyline fill="none" stroke="#FFFFFF" stroke-width="0.878" stroke-miterlimit="10" points="190.035,19.659 213.037,42.661 
		184.924,70.777 213.044,98.895 190.035,121.907 	"/>
	<polyline fill="none" stroke="#FFFFFF" stroke-width="0.878" stroke-miterlimit="10" points="192.597,124.463 218.16,98.895 
		190.04,70.776 218.149,42.657 192.597,17.104 	"/>
	<polyline fill="none" stroke="#FFFFFF" stroke-width="0.878" stroke-miterlimit="10" points="195.192,14.525 223.271,42.66 
		195.155,70.777 223.275,98.895 195.176,127.206 	"/>
	<polyline fill="none" stroke="#FFFFFF" stroke-width="0.878" stroke-miterlimit="10" points="212.721,73.333 215.278,70.776 
		212.721,68.213 	"/>
	<polyline fill="none" stroke="#FFFFFF" stroke-width="0.878" stroke-miterlimit="10" points="215.278,75.892 220.396,70.777 
		215.278,65.657 	"/>
	<polyline fill="none" stroke="#FFFFFF" stroke-width="0.878" stroke-miterlimit="10" points="217.837,78.451 225.515,70.777 
		217.837,63.097 	"/>
	<polyline fill="none" stroke="#FFFFFF" stroke-width="0.878" stroke-miterlimit="10" points="220.396,81.009 230.631,70.777 
		220.396,60.537 	"/>
	<polyline fill="none" stroke="#FFFFFF" stroke-width="0.878" stroke-miterlimit="10" points="222.956,83.57 235.75,70.777 
		222.956,57.98 	"/>
	<polyline fill="none" stroke="#FFFFFF" stroke-width="0.878" stroke-miterlimit="10" points="225.515,86.128 240.867,70.776 
		225.515,55.421 	"/>
	<polyline fill="none" stroke="#FFFFFF" stroke-width="0.878" stroke-miterlimit="10" points="228.073,88.688 245.985,70.776 
		228.073,52.86 	"/>
	<polyline fill="none" stroke="#FFFFFF" stroke-width="0.878" stroke-miterlimit="10" points="230.631,91.247 251.103,70.776 
		230.631,50.303 	"/>
	<polyline fill="none" stroke="#FFFFFF" stroke-width="0.878" stroke-miterlimit="10" points="233.189,93.805 256.221,70.777 
		233.189,47.742 	"/>
	<polyline fill="none" stroke="#FFFFFF" stroke-width="0.878" stroke-miterlimit="10" points="235.748,96.366 261.338,70.777 
		235.748,45.185 	"/>
	<polyline fill="none" stroke="#FFFFFF" stroke-width="0.878" stroke-miterlimit="10" points="238.336,98.918 210.193,70.776 
		238.32,42.646 	"/>
	
		<line fill="none" stroke="#000000" stroke-width="0.878" stroke-miterlimit="10" x1="138.933" y1="70.777" x2="138.933" y2="70.777"/>
	<polyline fill="none" stroke="#FFFFFF" stroke-width="0.878" stroke-miterlimit="10" points="136.339,68.215 133.78,70.777 
		136.339,73.333 	"/>
	<polyline fill="none" stroke="#FFFFFF" stroke-width="0.878" stroke-miterlimit="10" points="133.814,65.657 128.697,70.777 
		133.815,75.892 	"/>
	<polyline fill="none" stroke="#FFFFFF" stroke-width="0.878" stroke-miterlimit="10" points="131.255,63.098 123.579,70.777 
		131.255,78.452 	"/>
	<polyline fill="none" stroke="#FFFFFF" stroke-width="0.878" stroke-miterlimit="10" points="128.696,60.54 118.461,70.776 
		128.696,81.011 	"/>
	<polyline fill="none" stroke="#FFFFFF" stroke-width="0.878" stroke-miterlimit="10" points="126.139,57.98 113.344,70.777 
		126.139,83.571 	"/>
	<polyline fill="none" stroke="#000000" stroke-width="0.878" stroke-miterlimit="10" points="123.578,55.421 108.225,70.776 
		123.578,86.129 	"/>
	<polyline fill="none" stroke="#000000" stroke-width="0.878" stroke-miterlimit="10" points="121.02,52.863 103.106,70.777 
		121.02,88.688 	"/>
	<polyline fill="none" stroke="#FFFFFF" stroke-width="0.878" stroke-miterlimit="10" points="115.902,47.744 92.872,70.777 
		115.902,93.805 	"/>
	<polyline fill="none" stroke="#FFFFFF" stroke-width="0.878" stroke-miterlimit="10" points="113.343,45.185 87.755,70.777 
		113.343,96.366 	"/>
	
		<line fill="none" stroke="#FFFFFF" stroke-width="0.878" stroke-miterlimit="10" x1="141.455" y1="68.25" x2="113.311" y2="40.104"/>
	
		<line fill="none" stroke="#FFFFFF" stroke-width="0.878" stroke-miterlimit="10" x1="113.443" y1="101.454" x2="141.526" y2="73.368"/>
	
		<line fill="none" stroke="#FFFFFF" stroke-width="0.878" stroke-miterlimit="10" x1="144.021" y1="65.696" x2="115.874" y2="37.55"/>
	
		<line fill="none" stroke="#FFFFFF" stroke-width="0.878" stroke-miterlimit="10" x1="115.999" y1="104.016" x2="144.084" y2="75.928"/>
	
		<line fill="none" stroke="#FFFFFF" stroke-width="0.878" stroke-miterlimit="10" x1="146.573" y1="63.13" x2="118.436" y2="34.992"/>
	
		<line fill="none" stroke="#FFFFFF" stroke-width="0.878" stroke-miterlimit="10" x1="118.554" y1="106.577" x2="146.642" y2="78.487"/>
	
		<line fill="none" stroke="#FFFFFF" stroke-width="0.878" stroke-miterlimit="10" x1="149.137" y1="60.578" x2="120.998" y2="32.438"/>
	
		<line fill="none" stroke="#FFFFFF" stroke-width="0.878" stroke-miterlimit="10" x1="121.111" y1="109.139" x2="149.203" y2="81.045"/>
	
		<line fill="none" stroke="#FFFFFF" stroke-width="0.878" stroke-miterlimit="10" x1="151.689" y1="58.01" x2="123.56" y2="29.883"/>
	
		<line fill="none" stroke="#FFFFFF" stroke-width="0.878" stroke-miterlimit="10" x1="123.667" y1="111.702" x2="151.762" y2="83.606"/>
	
		<line fill="none" stroke="#FFFFFF" stroke-width="0.878" stroke-miterlimit="10" x1="154.251" y1="55.454" x2="126.122" y2="27.326"/>
	
		<line fill="none" stroke="#FFFFFF" stroke-width="0.878" stroke-miterlimit="10" x1="126.223" y1="114.262" x2="154.319" y2="86.164"/>
	
		<line fill="none" stroke="#FFFFFF" stroke-width="0.878" stroke-miterlimit="10" x1="156.812" y1="52.899" x2="128.686" y2="24.771"/>
	
		<line fill="none" stroke="#FFFFFF" stroke-width="0.878" stroke-miterlimit="10" x1="128.779" y1="116.825" x2="156.879" y2="88.723"/>
	
		<line fill="none" stroke="#FFFFFF" stroke-width="0.878" stroke-miterlimit="10" x1="159.376" y1="50.343" x2="131.246" y2="22.214"/>
	
		<line fill="none" stroke="#FFFFFF" stroke-width="0.878" stroke-miterlimit="10" x1="131.334" y1="119.387" x2="159.438" y2="91.283"/>
	
		<line fill="none" stroke="#FFFFFF" stroke-width="0.878" stroke-miterlimit="10" x1="161.928" y1="47.778" x2="133.809" y2="19.659"/>
	
		<line fill="none" stroke="#FFFFFF" stroke-width="0.878" stroke-miterlimit="10" x1="133.891" y1="121.95" x2="161.996" y2="93.842"/>
	
		<line fill="none" stroke="#FFFFFF" stroke-width="0.878" stroke-miterlimit="10" x1="164.479" y1="45.213" x2="136.37" y2="17.104"/>
	
		<line fill="none" stroke="#FFFFFF" stroke-width="0.878" stroke-miterlimit="10" x1="136.447" y1="124.51" x2="164.557" y2="96.401"/>
	<polyline fill="none" stroke="#FFFFFF" stroke-width="0.878" stroke-miterlimit="10" points="118.438,50.329 97.991,70.777 
		118.451,91.239 	"/>
	
		<line fill="none" stroke="#FFFFFF" stroke-width="0.878" stroke-miterlimit="10" x1="95.783" y1="98.993" x2="39.452" y2="42.662"/>
	
		<line fill="none" stroke="#FFFFFF" stroke-width="0.878" stroke-miterlimit="10" x1="39.589" y1="98.891" x2="95.783" y2="42.696"/>
	<line fill="none" stroke="#FFFFFF" stroke-width="0.878" stroke-miterlimit="10" x1="70.157" y1="68.25" x2="42.013" y2="40.104"/>
	
		<line fill="none" stroke="#FFFFFF" stroke-width="0.878" stroke-miterlimit="10" x1="42.145" y1="101.454" x2="70.228" y2="73.368"/>
	<line fill="none" stroke="#FFFFFF" stroke-width="0.878" stroke-miterlimit="10" x1="72.723" y1="65.696" x2="44.576" y2="37.55"/>
	
		<line fill="none" stroke="#FFFFFF" stroke-width="0.878" stroke-miterlimit="10" x1="44.701" y1="104.016" x2="72.786" y2="75.928"/>
	<line fill="none" stroke="#FFFFFF" stroke-width="0.878" stroke-miterlimit="10" x1="75.275" y1="63.13" x2="47.138" y2="34.992"/>
	
		<line fill="none" stroke="#FFFFFF" stroke-width="0.878" stroke-miterlimit="10" x1="47.256" y1="106.577" x2="75.344" y2="78.487"/>
	<line fill="none" stroke="#FFFFFF" stroke-width="0.878" stroke-miterlimit="10" x1="77.839" y1="60.578" x2="49.7" y2="32.438"/>
	
		<line fill="none" stroke="#FFFFFF" stroke-width="0.878" stroke-miterlimit="10" x1="49.813" y1="109.139" x2="77.905" y2="81.045"/>
	<line fill="none" stroke="#FFFFFF" stroke-width="0.878" stroke-miterlimit="10" x1="80.391" y1="58.01" x2="52.262" y2="29.883"/>
	
		<line fill="none" stroke="#FFFFFF" stroke-width="0.878" stroke-miterlimit="10" x1="52.37" y1="111.702" x2="80.463" y2="83.606"/>
	
		<line fill="none" stroke="#FFFFFF" stroke-width="0.878" stroke-miterlimit="10" x1="82.953" y1="55.454" x2="54.824" y2="27.326"/>
	
		<line fill="none" stroke="#FFFFFF" stroke-width="0.878" stroke-miterlimit="10" x1="54.925" y1="114.262" x2="83.022" y2="86.164"/>
	
		<line fill="none" stroke="#FFFFFF" stroke-width="0.878" stroke-miterlimit="10" x1="85.515" y1="52.899" x2="57.388" y2="24.771"/>
	
		<line fill="none" stroke="#FFFFFF" stroke-width="0.878" stroke-miterlimit="10" x1="57.481" y1="116.825" x2="85.582" y2="88.723"/>
	
		<line fill="none" stroke="#FFFFFF" stroke-width="0.878" stroke-miterlimit="10" x1="88.079" y1="50.343" x2="59.949" y2="22.214"/>
	
		<line fill="none" stroke="#FFFFFF" stroke-width="0.878" stroke-miterlimit="10" x1="60.037" y1="119.387" x2="88.141" y2="91.283"/>
	<line fill="none" stroke="#FFFFFF" stroke-width="0.878" stroke-miterlimit="10" x1="90.63" y1="47.778" x2="62.511" y2="19.659"/>
	
		<line fill="none" stroke="#FFFFFF" stroke-width="0.878" stroke-miterlimit="10" x1="62.593" y1="121.95" x2="90.698" y2="93.842"/>
	
		<line fill="none" stroke="#FFFFFF" stroke-width="0.878" stroke-miterlimit="10" x1="93.182" y1="45.213" x2="65.072" y2="17.104"/>
	
		<line fill="none" stroke="#FFFFFF" stroke-width="0.878" stroke-miterlimit="10" x1="65.149" y1="124.51" x2="93.259" y2="96.401"/>
	<line fill="none" stroke="#FFFFFF" stroke-width="0.878" stroke-miterlimit="10" x1="95.747" y1="42.66" x2="67.635" y2="14.524"/>
	
		<line fill="none" stroke="#FFFFFF" stroke-width="0.878" stroke-miterlimit="10" x1="67.705" y1="127.206" x2="95.817" y2="98.959"/>
	<polyline fill="none" stroke="#FFFFFF" stroke-width="0.878" stroke-miterlimit="10" points="65.075,68.215 62.516,70.777 
		65.075,73.333 	"/>
	<polyline fill="none" stroke="#FFFFFF" stroke-width="0.878" stroke-miterlimit="10" points="62.516,65.657 57.399,70.777 
		62.517,75.892 	"/>
	<polyline fill="none" stroke="#FFFFFF" stroke-width="0.878" stroke-miterlimit="10" points="59.958,63.098 52.28,70.777 
		59.958,78.452 	"/>
	<polyline fill="none" stroke="#FFFFFF" stroke-width="0.878" stroke-miterlimit="10" points="57.398,60.54 47.164,70.776 
		57.398,81.011 	"/>
	<polyline fill="none" stroke="#FFFFFF" stroke-width="0.878" stroke-miterlimit="10" points="54.841,57.98 42.046,70.777 
		54.841,83.571 	"/>
	<polyline fill="none" stroke="#FFFFFF" stroke-width="0.878" stroke-miterlimit="10" points="52.28,55.421 36.927,70.776 
		52.28,86.129 	"/>
	<polyline fill="none" stroke="#FFFFFF" stroke-width="0.878" stroke-miterlimit="10" points="49.722,52.863 31.809,70.777 
		49.722,88.688 	"/>
	<polyline fill="none" stroke="#FFFFFF" stroke-width="0.878" stroke-miterlimit="10" points="47.164,50.302 26.692,70.777 
		47.164,91.247 	"/>
	<polyline fill="none" stroke="#FFFFFF" stroke-width="0.878" stroke-miterlimit="10" points="44.604,47.744 21.574,70.777 
		44.604,93.805 	"/>
	<polyline fill="none" stroke="#FFFFFF" stroke-width="0.878" stroke-miterlimit="10" points="42.045,45.185 16.457,70.777 
		42.045,96.366 	"/>
	<polyline fill="none" stroke="#FFFFFF" stroke-width="0.878" stroke-miterlimit="10" points="167.045,42.66 138.933,14.524 
		82.636,70.777 138.933,127.206 167.115,98.959 	"/>
	<polyline fill="none" stroke="#FFFFFF" stroke-width="0.878" stroke-miterlimit="10" points="142.666,74.513 195.176,127.206 
		210.209,127.206 266.456,70.777 210.193,14.525 195.192,14.525 142.484,67.224 	"/>
	<polygon fill="none" stroke="#FFFFFF" stroke-width="0.878" stroke-miterlimit="10" points="82.615,127.206 138.932,70.776 
		82.614,14.524 67.635,14.524 11.338,70.776 67.705,127.206 	"/>
	<polygon fill="#FFFFFF" points="110.788,42.647 82.615,14.525 67.635,14.525 95.784,42.696 67.635,70.777 95.784,98.993 
		67.705,127.206 82.636,127.206 110.818,98.959 82.636,70.777 	"/>
	<polygon fill="#FFFFFF" points="179.805,70.777 207.916,42.67 192.564,42.67 164.452,70.777 192.564,98.903 207.927,98.903 	"/>
	<path fill="#FFFFFF" d="M154.27,70.777l-28.163-28.13v0.013L97.86,70.777l27.688,27.56l0.558,0.604L154.27,70.777z M113.343,70.777
		l12.788-12.789l12.801,12.789l-12.801,12.787L113.343,70.777z"/>
	<polygon fill="#FFFFFF" points="238.32,42.646 210.193,14.525 195.192,14.525 223.309,42.658 195.192,70.777 223.309,98.891 
		195.176,127.206 210.209,127.206 238.336,98.918 210.193,70.777 	"/>
</g>
</svg>
